<svg width="192" height="132" viewBox="0 0 192 132" fill="none" xmlns="http://www.w3.org/2000/svg">
<path d="M32.1914 61H19.1445V32.2109H33.1289C36.6576 32.263 39.1576 33.2852 40.6289 35.2773C41.5143 36.5013 41.957 37.9661 41.957 39.6719C41.957 41.4297 41.5143 42.8424 40.6289 43.9102C40.1341 44.5091 39.4049 45.056 38.4414 45.5508C39.9128 46.0846 41.0195 46.931 41.7617 48.0898C42.5169 49.2487 42.8945 50.6549 42.8945 52.3086C42.8945 54.0143 42.4648 55.5443 41.6055 56.8984C41.0586 57.7969 40.375 58.5521 39.5547 59.1641C38.6302 59.8672 37.5365 60.349 36.2734 60.6094C35.0234 60.8698 33.6628 61 32.1914 61ZM32.0547 48.3242H24.8867V56H31.957C33.2201 56 34.2031 55.8307 34.9062 55.4922C36.1823 54.8672 36.8203 53.6693 36.8203 51.8984C36.8203 50.401 36.2018 49.3724 34.9648 48.8125C34.2747 48.5 33.3047 48.3372 32.0547 48.3242ZM35.043 42.8359C35.8242 42.3672 36.2148 41.5273 36.2148 40.3164C36.2148 38.9753 35.694 38.0898 34.6523 37.6602C33.7539 37.3607 32.6081 37.2109 31.2148 37.2109H24.8867V43.5586H31.957C33.2201 43.5586 34.2487 43.3177 35.043 42.8359ZM60.1797 49.7109H53.9688V61H48.0898V32.2109H62.2109C64.2292 32.25 65.7786 32.4974 66.8594 32.9531C67.9531 33.4089 68.8776 34.0794 69.6328 34.9648C70.2578 35.694 70.7526 36.5013 71.1172 37.3867C71.4818 38.2721 71.6641 39.2812 71.6641 40.4141C71.6641 41.7812 71.319 43.1289 70.6289 44.457C69.9388 45.7721 68.7995 46.7031 67.2109 47.25C68.5391 47.7839 69.4766 48.5456 70.0234 49.5352C70.5833 50.5117 70.8633 52.0091 70.8633 54.0273V55.9609C70.8633 57.276 70.9154 58.168 71.0195 58.6367C71.1758 59.3789 71.5404 59.9258 72.1133 60.2773V61H65.4922C65.3099 60.362 65.1797 59.8477 65.1016 59.457C64.9453 58.6497 64.8607 57.8229 64.8477 56.9766L64.8086 54.3008C64.7826 52.4648 64.444 51.2409 63.793 50.6289C63.1549 50.0169 61.9505 49.7109 60.1797 49.7109ZM63.832 44.4766C65.0299 43.9297 65.6289 42.849 65.6289 41.2344C65.6289 39.4896 65.0495 38.3177 63.8906 37.7188C63.2396 37.3802 62.263 37.2109 60.9609 37.2109H53.9688V44.9453H60.7852C62.1393 44.9453 63.1549 44.7891 63.832 44.4766ZM93.7148 55.082H83.1094L81.1172 61H74.8281L85.1016 32.2109H91.8984L102.094 61H95.5703L93.7148 55.082ZM92.0352 50.1211L88.4414 38.793L84.7305 50.1211H92.0352ZM105.297 32.2109H111.273V61H105.297V32.2109ZM140.18 61H134.164L122.406 40.5508V61H116.801V32.2109H123.109L134.574 52.3086V32.2109H140.18V61ZM31.2734 96.6484H25.1602V107H19.1836V78.2109H31.7227C34.6133 78.2109 36.918 78.9531 38.6367 80.4375C40.3555 81.9219 41.2148 84.2201 41.2148 87.332C41.2148 90.7305 40.3555 93.1328 38.6367 94.5391C36.918 95.9453 34.4635 96.6484 31.2734 96.6484ZM34.0859 90.6523C34.8672 89.9622 35.2578 88.8685 35.2578 87.3711C35.2578 85.8737 34.8607 84.806 34.0664 84.168C33.2852 83.5299 32.1849 83.2109 30.7656 83.2109H25.1602V91.6875H30.7656C32.1849 91.6875 33.2917 91.3424 34.0859 90.6523ZM45.2578 78.2109H51.2344V107H45.2578V78.2109ZM77.1719 104.852C75.0234 106.818 72.276 107.801 68.9297 107.801C64.7891 107.801 61.5339 106.473 59.1641 103.816C56.7943 101.147 55.6094 97.4883 55.6094 92.8398C55.6094 87.8138 56.957 83.9401 59.6523 81.2188C61.9961 78.849 64.9779 77.6641 68.5977 77.6641C73.4414 77.6641 76.9831 79.2526 79.2227 82.4297C80.4596 84.2135 81.1237 86.0039 81.2148 87.8008H75.1992C74.8086 86.4206 74.3073 85.3789 73.6953 84.6758C72.6016 83.4258 70.9805 82.8008 68.832 82.8008C66.6445 82.8008 64.9193 83.6862 63.6562 85.457C62.3932 87.2148 61.7617 89.7083 61.7617 92.9375C61.7617 96.1667 62.4258 98.5885 63.7539 100.203C65.0951 101.805 66.7943 102.605 68.8516 102.605C70.9609 102.605 72.569 101.915 73.6758 100.535C74.2878 99.793 74.7956 98.6797 75.1992 97.1953H81.1562C80.6354 100.333 79.3073 102.885 77.1719 104.852ZM111.273 107H103.539L94.6523 94.4219L91.7812 97.3711V107H85.8633V78.2109H91.7812V90.0664L102.895 78.2109H110.668L98.8711 90.0664L111.273 107ZM134.711 94.4219H120.727V101.824H136.664V107H114.848V78.2109H135.961V83.3086H120.727V89.4219H134.711V94.4219ZM153.578 95.7109H147.367V107H141.488V78.2109H155.609C157.628 78.25 159.177 78.4974 160.258 78.9531C161.352 79.4089 162.276 80.0794 163.031 80.9648C163.656 81.694 164.151 82.5013 164.516 83.3867C164.88 84.2721 165.062 85.2812 165.062 86.4141C165.062 87.7812 164.717 89.1289 164.027 90.457C163.337 91.7721 162.198 92.7031 160.609 93.25C161.938 93.7839 162.875 94.5456 163.422 95.5352C163.982 96.5117 164.262 98.0091 164.262 100.027V101.961C164.262 103.276 164.314 104.168 164.418 104.637C164.574 105.379 164.939 105.926 165.512 106.277V107H158.891C158.708 106.362 158.578 105.848 158.5 105.457C158.344 104.65 158.259 103.823 158.246 102.977L158.207 100.301C158.181 98.4648 157.842 97.2409 157.191 96.6289C156.553 96.0169 155.349 95.7109 153.578 95.7109ZM157.23 90.4766C158.428 89.9297 159.027 88.849 159.027 87.2344C159.027 85.4896 158.448 84.3177 157.289 83.7188C156.638 83.3802 155.661 83.2109 154.359 83.2109H147.367V90.9453H154.184C155.538 90.9453 156.553 90.7891 157.23 90.4766Z" fill="white"/>
<rect x="3.5" y="3.5" width="185" height="125" stroke="white" stroke-width="7"/>
</svg>
