<svg width="56" height="30" viewBox="0 0 56 30" fill="none" xmlns="http://www.w3.org/2000/svg">
<path fill-rule="evenodd" clip-rule="evenodd" d="M13.5 30H31.6818H47V29.9921C47.1206 29.9973 47.2418 30 47.3636 30C51.8823 30 55.5455 26.3369 55.5455 21.8182C55.5455 17.2995 51.8823 13.6364 47.3636 13.6364C47.1142 13.6364 46.8674 13.6475 46.6236 13.6694C45.9502 6.00839 39.5177 0 31.6818 0C26.6471 0 22.1917 2.48049 19.4711 6.28607C17.6708 5.46268 15.6438 5 13.5 5C6.04416 5 0 10.5964 0 17.5C0 24.2486 5.7758 29.748 13 29.9916V30H13.5Z" fill="white"/>
</svg>
