<svg width="13" height="22" viewBox="0 0 13 22" fill="none" xmlns="http://www.w3.org/2000/svg">
<path d="M2.86917 1.22473L12.2379 10.5656C12.3491 10.6768 12.428 10.7973 12.4747 10.927C12.5214 11.0568 12.5444 11.1958 12.5437 11.344C12.5437 11.4923 12.5207 11.6313 12.4747 11.7611C12.4288 11.8908 12.3498 12.0113 12.2379 12.1225L2.86917 21.4912C2.6097 21.7506 2.28536 21.8804 1.89616 21.8804C1.50695 21.8804 1.17335 21.7414 0.895348 21.4634C0.617344 21.1854 0.478343 20.861 0.478343 20.4904C0.478343 20.1197 0.617344 19.7953 0.895347 19.5173L9.06864 11.344L0.895346 3.17075C0.635876 2.91128 0.506141 2.5914 0.506141 2.21109C0.506141 1.83078 0.645143 1.50199 0.923145 1.22473C1.20115 0.946727 1.52549 0.807725 1.89616 0.807725C2.26683 0.807725 2.59117 0.946727 2.86917 1.22473Z" fill="white"/>
</svg>
