<svg width="251" height="185" viewBox="0 0 251 185" fill="none" xmlns="http://www.w3.org/2000/svg">
<rect y="150.972" width="181.511" height="38.7109" rx="19.3554" transform="rotate(-30 0 150.972)" fill="white" fill-opacity="0.2"/>
<rect x="10.5378" y="152.039" width="99.8553" height="24.8127" rx="12.4063" transform="rotate(-30 10.5378 152.039)" fill="#EAFEFF" fill-opacity="0.4"/>
<rect x="11.1831" y="152.998" width="23.8366" height="22.2312" rx="11.1156" transform="rotate(-30 11.1831 152.998)" fill="#EAFEFF"/>
<rect x="77.4218" y="165.2" width="99.8553" height="17.6033" rx="8.80163" transform="rotate(-30 77.4218 165.2)" fill="#EAFEFF" fill-opacity="0.4"/>
<rect x="156.564" y="51.785" width="69.1604" height="9.90828" rx="4.95414" transform="rotate(-30 156.564 51.785)" fill="#EAFEFF" fill-opacity="0.4"/>
<rect x="176.349" y="102.539" width="69.1604" height="9.90828" rx="4.95414" transform="rotate(-30 176.349 102.539)" fill="#EAFEFF" fill-opacity="0.4"/>
<rect x="185.812" y="64.6886" width="69.1604" height="9.90828" rx="4.95414" transform="rotate(-30 185.812 64.6886)" fill="#EAFEFF" fill-opacity="0.4"/>
<rect x="26.6675" y="95.4826" width="190.965" height="15.0998" rx="7.54992" transform="rotate(-30 26.6675 95.4826)" fill="#EAFEFF" fill-opacity="0.4"/>
</svg>
