<svg width="15" height="15" viewBox="0 0 15 15" fill="none" xmlns="http://www.w3.org/2000/svg">
<path fill-rule="evenodd" clip-rule="evenodd" d="M1.8501 7.5001C1.8501 4.6651 4.0601 1.8501 7.5001 1.8501C10.2781 1.8501 11.6521 3.9061 12.2371 5.0001H10.5001C10.3675 5.0001 10.2403 5.05278 10.1465 5.14654C10.0528 5.24031 10.0001 5.36749 10.0001 5.5001C10.0001 5.63271 10.0528 5.75988 10.1465 5.85365C10.2403 5.94742 10.3675 6.0001 10.5001 6.0001H13.5001C13.6327 6.0001 13.7599 5.94742 13.8537 5.85365C13.9474 5.75988 14.0001 5.63271 14.0001 5.5001V2.5001C14.0001 2.36749 13.9474 2.24031 13.8537 2.14654C13.7599 2.05278 13.6327 2.0001 13.5001 2.0001C13.3675 2.0001 13.2403 2.05278 13.1465 2.14654C13.0528 2.24031 13.0001 2.36749 13.0001 2.5001V4.3131C12.2961 3.0711 10.6661 0.850098 7.5001 0.850098C3.4371 0.850098 0.850098 4.1851 0.850098 7.5001C0.850098 10.8151 3.4371 14.1501 7.5001 14.1501C9.4441 14.1501 11.0621 13.3801 12.2141 12.2081C12.8254 11.5846 13.3103 10.8488 13.6421 10.0411C13.667 9.98036 13.6798 9.91531 13.6796 9.84964C13.6794 9.78398 13.6663 9.719 13.641 9.65841C13.6157 9.59782 13.5787 9.54281 13.5321 9.49651C13.4856 9.45022 13.4303 9.41355 13.3696 9.3886C13.3089 9.36365 13.2438 9.3509 13.1781 9.35109C13.1125 9.35128 13.0475 9.36441 12.9869 9.38971C12.9263 9.41501 12.8713 9.452 12.825 9.49857C12.7787 9.54513 12.742 9.60036 12.7171 9.6611C12.4345 10.349 12.0216 10.9759 11.5011 11.5071C10.5301 12.4971 9.1651 13.1501 7.5001 13.1501C4.0601 13.1501 1.8501 10.3351 1.8501 7.5001Z" fill="white"/>
</svg>
